# 3-sided triangular prism marker (20cm x 20cm faces)
mtllib aruco_3sided_marker.mtl

v 0.115470 0.000000 0.000000
v -0.057735 0.100000 0.000000
v -0.057735 -0.100000 0.000000
v 0.115470 0.000000 0.200000
v -0.057735 0.100000 0.200000
v -0.057735 -0.100000 0.200000
vn 0.500000 0.866025 0.000000
vn -1.000000 0.000000 0.000000
vn 0.500000 -0.866025 0.000000
vn 0.000000 0.000000 1.000000
vn 0.000000 0.000000 -1.000000

vt 0.000000 0.000000
vt 1.000000 0.000000
vt 1.000000 1.000000
vt 0.000000 1.000000
vt 0.000000 0.000000
vt 1.000000 0.000000
vt 1.000000 1.000000
vt 0.000000 1.000000
vt 0.000000 0.000000
vt 1.000000 0.000000
vt 1.000000 1.000000
vt 0.000000 1.000000

usemtl aruco
f 1/1/1 2/2/1 5/3/1
f 1/1/1 5/3/1 4/4/1
f 2/5/2 3/6/2 6/7/2
f 2/5/2 6/7/2 5/8/2
f 3/9/3 1/10/3 4/11/3
f 3/9/3 4/11/3 6/12/3

usemtl plain
f 4//4 5//4 6//4
f 1//5 3//5 2//5
